<svg width="24" height="24" xmlns="http://www.w3.org/2000/svg" xmlns:xlink="http://www.w3.org/1999/xlink"><title>Foundation / Icon / 24 / Navigation / Bag / Outline / 00 Default</title><defs><path d="M16.495 6v2h-1V6H8.497v2h-1V6h-2.5v3.678c0 1.234-.13 2.682-.407 4.935l-.1.796c-.35 2.788-.44 3.595-.48 4.576-.02.481-.01.854.024 1.103a44.524 44.524 0 0 0 2.305.424c1.94.305 3.873.488 5.658.488.166 0 .335-.002.507-.006 1.469-.034 3.026-.203 4.762-.481.183-.03 1.831-.324 2.695-.453a6.87 6.87 0 0 0 .023-1.079c-.04-.983-.13-1.796-.481-4.58-.04-.313-.07-.554-.098-.788-.278-2.255-.408-3.702-.408-4.935V6h-2.502zm-8.998-.995v-.592C7.497 2.237 9.365 1 11.999 1c2.646 0 4.496 1.253 4.496 3.463v.542h3.502v4.673C19.997 14 21.89 22 20.457 22c-.638 0-4.63 1-8.46 1-4.212 0-8.467-1-8.467-1-1.422 0 .467-8 .467-12.322V5.005h3.5zm1 0h6.998v-.542C15.495 2.907 14.156 2 12 2c-2.147 0-3.502.897-3.502 2.413v.592z" id="prefix__a"/></defs><g fill="none" fill-rule="evenodd"><path d="M0 0h24v24H0z"/><use fill="#222" xlink:href="#prefix__a"/></g></svg>