<svg width="24" height="24" xmlns="http://www.w3.org/2000/svg" xmlns:xlink="http://www.w3.org/1999/xlink"><title>Foundation / Icon / 24 / Control / Favourite / 00 Inactive Outline</title><defs><path d="M17.376 1C21.476 1 24 3.578 24 7.807c0 1.628-.961 3.63-2.696 5.953-.89 1.192-1.97 2.446-3.196 3.737a71.66 71.66 0 0 1-3.987 3.865 71.495 71.495 0 0 1-1.816 1.58l-.305.251-.305-.252c-.093-.076-.264-.22-.503-.424-.396-.34-.838-.727-1.313-1.155a71.66 71.66 0 0 1-3.987-3.865c-1.227-1.291-2.305-2.545-3.196-3.737C.961 11.437 0 9.435 0 7.807 0 3.578 2.524 1 6.624 1c2.08 0 4.23 1.562 5.376 3.58C13.145 2.56 15.294 1 17.376 1zM12 21.79l.18-.154c.383-.329.812-.704 1.273-1.12a69.488 69.488 0 0 0 3.865-3.746c1.18-1.244 2.217-2.448 3.068-3.587 1.593-2.132 2.462-3.943 2.462-5.286 0-3.64-2.063-5.747-5.565-5.747-1.927 0-4.049 1.768-4.842 3.843L12 7.145l-.44-1.152C10.765 3.919 8.642 2.15 6.716 2.15c-3.502 0-5.565 2.107-5.565 5.747 0 1.343.87 3.154 2.462 5.286.85 1.14 1.887 2.343 3.068 3.587a69.488 69.488 0 0 0 3.865 3.747A69.313 69.313 0 0 0 12 21.789z" id="prefix__a"/></defs><g fill="none" fill-rule="evenodd"><path d="M0 0h24v24H0z"/><use fill="#222" xlink:href="#prefix__a"/></g></svg>